<svg xmlns="http://www.w3.org/2000/svg" viewBox="0 0 302.76 93.8"><defs><style>.cls-1{fill:#fff;}</style></defs><title>lockup</title><g id="Layer_2" data-name="Layer 2"><g id="Layer_1-2" data-name="Layer 1"><g id="_Group_" data-name="&lt;Group&gt;"><g id="_Group_2" data-name="&lt;Group&gt;"><g id="_Group_3" data-name="&lt;Group&gt;"><rect id="_Path_" data-name="&lt;Path&gt;" class="cls-1" y="0.46" width="5" height="24.34"/><g id="_Group_4" data-name="&lt;Group&gt;"><path id="_Path_2" data-name="&lt;Path&gt;" class="cls-1" d="M9.29.46h5.16L20,11.38c.79,1.54,1.19,2.33,2,4.17h.06V.46h4.54V24.8H22L15.67,13c-.69-1.32-1.05-2-1.78-3.62h-.06V24.8H9.29Z"/><path id="_Compound_Path_" data-name="&lt;Compound Path&gt;" class="cls-1" d="M37.77,20.62c4.21,0,5.69-2.17,5.69-8.06,0-5.69-1.48-7.89-5.72-7.89H35.93v16ZM30.93.46h6.38c6.54,0,11.15,2.7,11.15,12.1S43.76,24.8,37.32,24.8H30.93Z"/></g><rect id="_Path_3" data-name="&lt;Path&gt;" class="cls-1" x="51.91" y="0.46" width="5" height="24.34"/><g id="_Group_5" data-name="&lt;Group&gt;"><path id="_Compound_Path_2" data-name="&lt;Compound Path&gt;" class="cls-1" d="M70.59,13.32c-.66-2.56-1.18-4.37-1.64-6.64h-.07c-.43,2.3-1,4-1.68,6.61l-.66,2.5h4.67ZM64.18,24.8H59.51L66.65.36h4.8L78.58,24.8h-5l-1.32-5.13H65.53Z"/><path id="_Path_4" data-name="&lt;Path&gt;" class="cls-1" d="M81.15.46h5.16l5.59,10.92c.79,1.54,1.19,2.33,2,4.17h.06V.46h4.54V24.8H93.85L87.53,13c-.69-1.32-1.05-2-1.78-3.62h-.07V24.8H81.15Z"/><path id="_Compound_Path_3" data-name="&lt;Compound Path&gt;" class="cls-1" d="M112.19,13.32c-.66-2.56-1.18-4.37-1.64-6.64h-.07c-.43,2.3-1,4-1.68,6.61l-.66,2.5h4.67ZM105.77,24.8H101.1L108.24.36H113l7.14,24.44h-5l-1.32-5.13h-6.71Z"/><path id="_Path_5" data-name="&lt;Path&gt;" class="cls-1" d="M130.93,16.38V.46h5V16.08c0,3.39,1,4.9,3.45,4.9s3.45-1.55,3.45-4.87V.46h4.77V16.35c0,5.63-2.4,8.85-8.29,8.85s-8.39-3.22-8.39-8.82"/><path id="_Path_6" data-name="&lt;Path&gt;" class="cls-1" d="M151.67.46h5.16l5.59,10.92c.79,1.54,1.19,2.33,2,4.17h.06V.46H169V24.8h-4.64L158.05,13c-.69-1.32-1.05-2-1.78-3.62h-.06V24.8h-4.54Z"/></g><rect id="_Path_7" data-name="&lt;Path&gt;" class="cls-1" x="173.41" y="0.46" width="5" height="24.34"/><g id="_Group_6" data-name="&lt;Group&gt;"><path id="_Path_8" data-name="&lt;Path&gt;" class="cls-1" d="M181,.46h5L188.9,12c.59,2.3,1,4,1.48,6.48h.06c.49-2.4,1-4.11,1.51-6.41l3-11.58h4.67L192.71,24.9h-4.84Z"/></g><polygon id="_Path_9" data-name="&lt;Path&gt;" class="cls-1" points="202.16 0.46 216.1 0.46 216.1 4.67 207.15 4.67 207.15 10.16 213.6 10.16 213.6 14.14 207.15 14.14 207.15 20.69 216.56 20.69 216.56 24.8 202.16 24.8 202.16 0.46"/><g id="_Group_7" data-name="&lt;Group&gt;"><path id="_Compound_Path_4" data-name="&lt;Compound Path&gt;" class="cls-1" d="M226.87,12c2.43,0,3.65-1,3.65-3.78s-1.22-3.55-3.65-3.55h-2.53V12ZM219.44.46H227c5.13,0,8.25,2.17,8.25,7.63,0,3.32-1.64,5.53-4,6.48l4.64,10.23h-5.16l-4.11-9h-2.3v9h-4.9Z"/><path id="_Path_10" data-name="&lt;Path&gt;" class="cls-1" d="M237.41,19.44l4-2c1.05,2.11,2.73,3.85,5.1,3.85,2.11,0,3.23-1.12,3.23-2.76,0-2-2-2.93-4.31-3.91-3.19-1.35-7.1-2.89-7.1-7.8,0-4,3.29-6.77,7.73-6.77,4.18,0,6.71,2.34,8.19,5.43L250.4,7.53c-1-2-2.37-3.42-4.41-3.42a2.44,2.44,0,0,0-2.73,2.44c0,1.94,1.84,2.86,4,3.85,3.26,1.41,7.4,3,7.4,7.89,0,3.68-2.83,6.94-8.13,6.94a9.39,9.39,0,0,1-9.14-5.79"/></g><rect id="_Path_11" data-name="&lt;Path&gt;" class="cls-1" x="257.99" y="0.46" width="5" height="24.34"/><polygon id="_Path_12" data-name="&lt;Path&gt;" class="cls-1" points="271.45 4.67 265.66 4.67 265.66 0.46 282.27 0.46 282.27 4.67 276.45 4.67 276.45 24.8 271.45 24.8 271.45 4.67"/><polygon id="_Path_13" data-name="&lt;Path&gt;" class="cls-1" points="297.85 0.46 293.51 10.72 293.44 10.72 289.1 0.46 284.01 0.46 290.85 15.26 290.85 24.8 295.84 24.8 295.84 15.23 302.72 0.46 297.85 0.46"/></g><g id="_Group_8" data-name="&lt;Group&gt;"><path id="_Compound_Path_5" data-name="&lt;Compound Path&gt;" class="cls-1" d="M.07,36.19H8.43c5.43,0,8.16,2.24,8.16,6.05A5.42,5.42,0,0,1,12,47.8v.07c3,.55,5.33,2.41,5.33,5.85,0,3.81-2.67,6.54-8.23,6.54H.07Zm8.16,10.7c3.84,0,6.08-1.37,6.08-4.36s-1.85-4.26-6-4.26h-6v8.62Zm.88,11.32c4.13,0,6-1.66,6-4.59,0-3.25-2.57-4.72-6.7-4.72H2.35v9.3Z"/><path id="_Compound_Path_6" data-name="&lt;Compound Path&gt;" class="cls-1" d="M29.19,36.19H31.5V60.26H29.19Z"/><path id="_Compound_Path_7" data-name="&lt;Compound Path&gt;" class="cls-1" d="M43.33,48.13c0-7.29,4-12.39,10-12.39,4.88,0,7.58,2.9,8.72,7.35l-2.21.55c-1.07-3.81-2.86-5.79-6.54-5.79-4.65,0-7.68,4-7.68,10.21,0,6.67,3.06,10.57,7.74,10.57,3.58,0,5.82-2.08,6.86-6.11l2.21.49c-1.17,4.75-4.29,7.71-9.11,7.71C47.27,60.71,43.33,55.8,43.33,48.13Z"/><path id="_Compound_Path_8" data-name="&lt;Compound Path&gt;" class="cls-1" d="M73.75,36.19H88.12v2.15H76.06V46.5h9v2.08h-9v9.56H88.81v2.11H73.75Z"/><path id="_Compound_Path_9" data-name="&lt;Compound Path&gt;" class="cls-1" d="M99.9,36.19h2.47L115.64,56h.06V36.19h2.18V60.26h-2L102.14,39.8h-.06V60.26H99.9Z"/><path id="_Compound_Path_10" data-name="&lt;Compound Path&gt;" class="cls-1" d="M136.36,38.34h-7.77V36.19h17.86v2.15h-7.77V60.26h-2.31Z"/><path id="_Compound_Path_11" data-name="&lt;Compound Path&gt;" class="cls-1" d="M157.14,36.19h14.38v2.15H159.45V46.5h9v2.08h-9v9.56H172.2v2.11H157.14Z"/><path id="_Compound_Path_12" data-name="&lt;Compound Path&gt;" class="cls-1" d="M183.29,36.19h2.47L199,56h.06V36.19h2.18V60.26h-2L185.54,39.8h-.06V60.26h-2.18Z"/><path id="_Compound_Path_13" data-name="&lt;Compound Path&gt;" class="cls-1" d="M214,36.19h2.47L229.71,56h.06V36.19H232V60.26h-2L216.21,39.8h-.06V60.26H214Z"/><path id="_Compound_Path_14" data-name="&lt;Compound Path&gt;" class="cls-1" d="M245,36.19h2.31V60.26H245Z"/><path id="_Compound_Path_15" data-name="&lt;Compound Path&gt;" class="cls-1" d="M266.89,36.09h2.5l8.52,24.17h-2.41l-2.57-7.42h-9.76l-2.57,7.42h-2.24Zm5.33,14.7-4.13-12H268l-4.13,12Z"/><path id="_Compound_Path_16" data-name="&lt;Compound Path&gt;" class="cls-1" d="M288.68,36.19H291v22h11.77v2.11H288.68Z"/></g></g><g id="_Group_9" data-name="&lt;Group&gt;"><path id="_Compound_Path_17" data-name="&lt;Compound Path&gt;" class="cls-1" d="M83.85,93.45V91.78h3V79.53a7.17,7.17,0,0,1-2.94.73V78.58a4.64,4.64,0,0,0,3-1h1.76V91.78h2.66v1.68Z"/><path id="_Compound_Path_18" data-name="&lt;Compound Path&gt;" class="cls-1" d="M96.08,89.56c0-2.19,1.59-3.46,4.08-4.51-2.08-1-3.35-2-3.35-3.93s1.85-3.91,5.09-3.91,5,2,5,3.91S105.73,84,103.58,85c2.58,1.12,4.1,2.23,4.1,4.58s-2.13,4.23-5.78,4.23S96.08,91.95,96.08,89.56Zm9.73-.11c0-1.68-1.42-2.6-4-3.7-2.58,1.16-3.8,2.11-3.8,3.7s1.61,2.77,3.93,2.77S105.81,91.15,105.81,89.46Zm-.69-8.23c0-1.2-1-2.43-3.22-2.43S98.66,80,98.66,81.16c0,1.46,1.05,2.15,3.33,3.14C104.2,83.31,105.13,82.62,105.13,81.23Z"/><path id="_Compound_Path_19" data-name="&lt;Compound Path&gt;" class="cls-1" d="M112.65,93.45v-.34c0-2.3,1-4.45,5.22-7.13,2.38-1.53,3.35-2.49,3.35-4.19a2.7,2.7,0,0,0-3-2.86,4.38,4.38,0,0,0-3.89,2.62l-1.46-.9a6,6,0,0,1,5.44-3.39c2.94,0,4.75,1.81,4.75,4.4,0,2.08-.95,3.5-4,5.44-2.77,1.76-4.12,3.33-4.3,4.68h8.38v1.68Z"/><path id="_Compound_Path_20" data-name="&lt;Compound Path&gt;" class="cls-1" d="M128.55,85.5c0-5,2.19-8.25,6-8.25s6,3.29,6,8.25-2.13,8.25-6,8.25S128.55,90.47,128.55,85.5Zm10.08,0c0-4.32-1.59-6.57-4.08-6.57s-4.11,2.26-4.11,6.57,1.59,6.6,4.11,6.6S138.62,89.82,138.62,85.5Z"/><path id="_Compound_Path_21" data-name="&lt;Compound Path&gt;" class="cls-1" d="M145.47,87.44V86h7.87v1.46Z"/><path id="_Compound_Path_22" data-name="&lt;Compound Path&gt;" class="cls-1" d="M158.12,93.45v-.34c0-2.3,1-4.45,5.22-7.13,2.38-1.53,3.35-2.49,3.35-4.19a2.7,2.7,0,0,0-3-2.86,4.38,4.38,0,0,0-3.89,2.62l-1.46-.9a6,6,0,0,1,5.44-3.39c2.94,0,4.75,1.81,4.75,4.4,0,2.08-.95,3.5-4,5.44-2.77,1.76-4.12,3.33-4.3,4.68h8.38v1.68Z"/><path id="_Compound_Path_23" data-name="&lt;Compound Path&gt;" class="cls-1" d="M174,85.5c0-5,2.19-8.25,6-8.25s6,3.29,6,8.25-2.13,8.25-6,8.25S174,90.47,174,85.5Zm10.08,0c0-4.32-1.59-6.57-4.08-6.57s-4.1,2.26-4.1,6.57,1.59,6.6,4.1,6.6S184.1,89.82,184.1,85.5Z"/><path id="_Compound_Path_24" data-name="&lt;Compound Path&gt;" class="cls-1" d="M191.06,93.45v-.34c0-2.3,1-4.45,5.22-7.13,2.38-1.53,3.35-2.49,3.35-4.19a2.7,2.7,0,0,0-3-2.86,4.38,4.38,0,0,0-3.89,2.62l-1.46-.9a6,6,0,0,1,5.44-3.39c2.94,0,4.75,1.81,4.75,4.4,0,2.08-.95,3.5-4,5.44-2.77,1.76-4.12,3.33-4.3,4.68h8.38v1.68Z"/><path id="_Compound_Path_25" data-name="&lt;Compound Path&gt;" class="cls-1" d="M207,85.5c0-5,2.19-8.25,6-8.25s6,3.29,6,8.25-2.13,8.25-6,8.25S207,90.47,207,85.5Zm10.08,0c0-4.32-1.59-6.57-4.08-6.57s-4.1,2.26-4.1,6.57,1.59,6.6,4.1,6.6S217,89.82,217,85.5Z"/></g></g></g></g></svg>